<?xml version="1.0" standalone="no"?>
<!DOCTYPE svg PUBLIC "-//W3C//DTD SVG 20010904//EN"
 "http://www.w3.org/TR/2001/REC-SVG-20010904/DTD/svg10.dtd">
<svg version="1.0" xmlns="http://www.w3.org/2000/svg"
 width="1279.000000pt" height="107.000000pt" viewBox="0 0 1279.000000 107.000000"
 preserveAspectRatio="xMidYMid meet">
<metadata>
Created by potrace 1.13, written by Peter Selinger 2001-2015
</metadata>
<g transform="translate(0.000000,107.000000) scale(0.100000,-0.100000)"
fill="#000000" stroke="none">
<path d="M5900 1034 c-51 -9 -146 -48 -186 -74 -64 -45 -122 -143 -124 -210 0
-47 21 -102 57 -141 42 -47 89 -53 123 -17 31 34 25 64 -22 108 l-43 39 20 37
c31 58 87 89 159 89 102 -1 177 -53 225 -155 31 -67 35 -157 8 -208 -41 -76
-170 -136 -292 -136 -90 1 -168 22 -335 90 -277 114 -293 119 -415 119 -129 0
-170 -14 -343 -116 l-103 -62 -97 51 c-140 73 -213 93 -363 99 -157 7 -202 -2
-351 -74 l-117 -56 -153 76 c-84 42 -248 125 -363 184 -317 163 -521 230 -769
254 -254 26 -400 -27 -866 -315 -376 -233 -432 -258 -621 -275 -311 -29 -593
59 -844 262 -44 36 -82 63 -84 61 -9 -8 74 -86 159 -150 232 -175 507 -263
791 -251 194 8 277 40 653 250 240 133 413 219 511 252 164 56 385 41 647 -45
133 -44 295 -120 611 -288 l189 -100 -124 -60 c-170 -83 -217 -97 -313 -96
-169 3 -337 64 -680 248 -318 171 -406 206 -519 206 -72 0 -143 -30 -204 -85
-58 -52 -75 -104 -70 -213 5 -99 29 -156 90 -208 47 -39 147 -84 205 -91 146
-17 293 80 293 194 0 98 -82 171 -124 111 -22 -31 -21 -35 16 -68 28 -26 30
-32 20 -55 -6 -14 -26 -34 -44 -46 -43 -26 -121 -22 -166 9 -38 28 -82 114
-82 162 0 73 73 140 151 140 68 0 173 -42 429 -171 340 -172 516 -229 699
-229 43 0 102 7 132 16 61 18 217 95 315 155 l66 40 92 -35 c185 -70 340 -106
502 -113 165 -8 293 23 516 126 201 92 292 116 389 100 69 -11 92 -19 314
-109 271 -109 419 -137 570 -106 103 21 229 82 299 147 l56 51 56 -51 c70 -65
196 -126 299 -147 151 -31 299 -3 570 106 222 90 245 98 314 109 71 11 166 -5
263 -45 59 -24 66 -30 55 -43 -10 -14 -10 -14 4 -3 14 10 36 4 134 -38 189
-81 247 -95 410 -95 176 0 332 31 517 102 l66 25 59 -35 c92 -56 233 -124 292
-141 30 -9 89 -16 132 -16 183 0 358 57 699 229 256 129 361 171 429 171 78 0
151 -67 151 -140 0 -48 -44 -134 -82 -162 -45 -31 -123 -35 -166 -9 -18 12
-38 32 -44 46 -10 23 -8 29 20 55 37 33 38 37 16 68 -23 33 -57 28 -93 -13
-26 -30 -31 -44 -31 -89 0 -43 6 -61 30 -94 39 -54 92 -88 159 -103 76 -16
144 -5 228 36 124 61 173 144 173 289 0 86 -21 138 -75 185 -60 53 -130 81
-201 81 -112 0 -202 -35 -512 -202 -318 -171 -455 -226 -627 -249 -112 -14
-185 2 -345 77 l-114 55 219 116 c346 182 487 248 623 293 262 85 483 101 647
45 98 -33 271 -119 511 -252 376 -210 459 -242 653 -250 323 -13 640 104 884
327 93 85 86 98 -10 20 -258 -210 -537 -298 -852 -269 -189 17 -245 42 -621
275 -345 213 -504 288 -667 316 -135 23 -394 -17 -608 -92 -134 -48 -243 -99
-525 -246 -140 -73 -287 -147 -326 -164 l-71 -31 -134 65 c-166 81 -207 90
-368 83 -142 -5 -217 -25 -343 -88 l-77 -39 -77 47 c-42 25 -108 60 -148 77
-65 28 -80 31 -181 31 -122 0 -138 -5 -415 -119 -167 -68 -245 -89 -335 -90
-122 0 -251 60 -292 136 -27 51 -23 141 8 208 48 102 123 154 225 155 72 0
128 -31 159 -89 l20 -37 -43 -39 c-47 -44 -53 -74 -22 -108 34 -36 81 -30 123
17 73 81 73 178 1 282 -85 124 -296 178 -464 120 -105 -37 -215 -112 -263
-181 l-17 -24 -17 24 c-48 69 -159 145 -259 179 -62 20 -169 33 -214 25z
m-1500 -562 c74 -23 152 -55 182 -76 20 -14 19 -15 -18 -34 -174 -89 -404 -94
-664 -16 -47 14 -88 29 -92 33 -12 11 157 93 220 108 83 18 289 10 372 -15z
m4256 17 c54 -9 158 -55 243 -107 l34 -20 -69 -21 c-278 -82 -536 -61 -714 58
-24 16 106 66 245 95 42 8 204 6 261 -5z"/>
</g>
</svg>
